<svg xmlns="http://www.w3.org/2000/svg" width="23" height="22" viewBox="0 0 23 22" fill="none">
  <path d="M20.5477 5.55953H19.8785C19.8601 5.55694 19.8418 5.55436 19.8234 5.55436H18.7816V5.55177H18.7842V2.44781C18.7816 1.38728 17.9051 0.52076 16.8265 0.518174H16.1574C16.139 0.515587 16.1206 0.513 16.1022 0.513H14.5907C14.5723 0.513 14.554 0.515587 14.5356 0.518174H1.95767C0.879116 0.518174 0.00262423 1.3847 0 2.44781V11.633C0 12.6366 0.787268 13.4721 1.79759 13.5548C1.81596 13.56 1.83433 13.56 1.8527 13.56H3.72115V13.5574H4.41395C4.42182 13.56 4.42707 13.56 4.43232 13.56C4.42707 13.56 4.42182 13.56 4.41657 13.56H3.72378V16.6717C3.72378 17.6753 4.51104 18.5108 5.52137 18.5936C5.53974 18.5962 5.55811 18.5988 5.57648 18.5988H8.14035C8.1456 18.5988 8.15347 18.5988 8.15872 18.5988H12.9584L16.2203 21.3872C16.4408 21.576 16.7216 21.682 17.0129 21.682C17.1887 21.682 17.3593 21.6458 17.5167 21.5734C17.9523 21.382 18.2331 20.9526 18.2305 20.4818V18.5988H20.5529C21.6289 18.5962 22.508 17.7323 22.5106 16.6717V7.48658C22.5027 6.42605 21.6236 5.55953 20.5477 5.55953ZM1.95767 12.0158C1.74249 12.0158 1.56929 11.8451 1.56929 11.633V2.45039C1.56929 2.23829 1.74511 2.06757 1.95767 2.06498H16.8265C17.0417 2.06498 17.2149 2.23829 17.2149 2.44781V5.55436H18.2594C18.2725 5.55177 18.2856 5.55177 18.2987 5.54918C18.2856 5.54918 18.2699 5.55177 18.2594 5.55694H17.2149H5.6762C4.60027 5.55953 3.72115 6.42347 3.72115 7.48658V12.0132V12.0158H1.95767ZM20.9334 16.6743C20.9334 16.8864 20.7602 17.0571 20.5451 17.0571H17.438C17.005 17.0571 16.656 17.4063 16.656 17.8305V19.724L13.7588 17.246C13.6171 17.1244 13.436 17.0571 13.2471 17.0571H5.67882C5.46364 17.0571 5.29044 16.8864 5.29044 16.6743V13.56H5.28781V12.0158V12.0132V7.48658C5.28781 7.27447 5.46364 7.10117 5.67882 7.10117H17.2149H18.7816V7.10375H20.5451C20.7602 7.10375 20.9334 7.27706 20.9334 7.48658V16.6743Z" fill="black"/>
  <path d="M9.31032 11.1001C8.78548 11.1001 8.36035 11.5191 8.36035 12.0364C8.36035 12.2071 8.41021 12.3623 8.48894 12.4994C8.65426 12.7814 8.95867 12.9728 9.31295 12.9728C9.66722 12.9728 9.97425 12.7814 10.137 12.4994C10.2157 12.3623 10.2655 12.2071 10.2655 12.0364C10.2655 11.5191 9.83779 11.1001 9.31032 11.1001Z" fill="black"/>
  <path d="M13.116 11.1001C12.5911 11.1001 12.166 11.5191 12.166 12.0364C12.166 12.2071 12.2159 12.3623 12.2946 12.4994C12.4599 12.7814 12.7643 12.9728 13.1186 12.9728C13.4729 12.9728 13.7799 12.7814 13.9426 12.4994C14.0213 12.3623 14.0712 12.2071 14.0712 12.0364C14.0712 11.5191 13.6408 11.1001 13.116 11.1001Z" fill="black"/>
  <path d="M16.9233 11.1001C16.7816 11.1001 16.6478 11.1337 16.527 11.188C16.2751 11.3018 16.0835 11.5217 16.0074 11.7933C15.9864 11.8709 15.9707 11.9537 15.9707 12.0364C15.9707 12.1192 15.9864 12.202 16.0074 12.2796C16.0835 12.5486 16.2751 12.771 16.527 12.8848C16.6478 12.9392 16.7816 12.9728 16.9233 12.9728C17.4481 12.9728 17.8733 12.5538 17.8733 12.0364C17.8733 11.5191 17.4481 11.1001 16.9233 11.1001Z" fill="black"/>
</svg>