<svg xmlns="http://www.w3.org/2000/svg" width="23" height="23" viewBox="0 0 23 23" fill="none">
  <path d="M11.8076 0.513C5.62488 0.513 0.615234 5.45089 0.615234 11.545C0.615234 17.6391 5.62751 22.577 11.8076 22.577C17.9876 22.577 22.9999 17.6365 22.9999 11.545C22.9946 5.45348 17.9876 0.518174 11.8076 0.513ZM11.8076 21.038C6.48825 21.038 2.17665 16.7881 2.17665 11.545C2.17665 6.3019 6.48825 2.05205 11.8076 2.05205C17.1269 2.05205 21.4385 6.3019 21.4385 11.545C21.4332 16.7855 17.1242 21.0328 11.8076 21.038Z" fill="black"/>
  <path d="M13.8888 12.7142C15.7074 11.5605 16.2322 9.17308 15.0618 7.38054C13.8914 5.588 11.4693 5.07067 9.65329 6.22431C7.83733 7.37795 7.30986 9.76542 8.48026 11.558C8.78205 12.021 9.18355 12.4167 9.65329 12.7142C8.01577 13.379 6.85587 14.8456 6.60132 16.5735C6.54621 16.9925 6.84274 17.3779 7.26787 17.4348H7.37284C7.76647 17.4374 8.10237 17.1529 8.15486 16.7674C8.46714 15.0318 10.0207 13.7799 11.8104 13.8213C12.7919 13.8239 13.734 14.1912 14.4556 14.8482C15.0172 15.3681 15.3846 16.0587 15.4974 16.8088C15.6365 17.2123 16.08 17.427 16.4894 17.29C16.8017 17.1865 17.0142 16.8994 17.0195 16.5735C16.8594 15.4715 16.3188 14.455 15.4896 13.6997C15.0146 13.2807 14.4766 12.947 13.8888 12.7142ZM11.8078 7.18396C13.1015 7.18396 14.1512 8.21861 14.1512 9.49382C14.1512 10.769 13.1015 11.8037 11.8078 11.8037C10.514 11.8037 9.46435 10.769 9.46435 9.49382C9.46435 8.21861 10.514 7.18396 11.8078 7.18396Z" fill="black"/>
</svg>