<svg xmlns="http://www.w3.org/2000/svg" width="20" height="23" viewBox="0 0 20 23" fill="none">
  <path d="M5.63701 10.9837H5.63176C5.19614 10.9837 4.86549 10.5958 4.93897 10.1715C5.07018 9.4059 5.38509 8.68681 5.87319 8.05567C6.33768 7.45299 6.9465 6.9667 7.63405 6.63561C8.02768 6.44678 8.49742 6.65372 8.61813 7.06499C8.7126 7.38832 8.5604 7.73234 8.25599 7.87978C7.24304 8.36348 6.51875 9.31537 6.32981 10.4121C6.27207 10.7458 5.97554 10.9837 5.63701 10.9837Z" fill="black"/>
  <path d="M5.63662 11.0613H5.63137C5.40043 11.0613 5.18525 10.963 5.03567 10.7897C4.88609 10.6164 4.82311 10.3862 4.85984 10.1586C4.99368 9.37223 5.31384 8.65056 5.80719 8.00907C6.27693 7.40121 6.89624 6.90458 7.59691 6.56573C7.80423 6.46485 8.04565 6.46226 8.25822 6.5528C8.47078 6.64592 8.62823 6.82439 8.69121 7.04426C8.79881 7.40639 8.62823 7.78662 8.28708 7.94958C7.2925 8.42552 6.58921 9.34895 6.40289 10.425C6.34253 10.7949 6.01713 11.0613 5.63662 11.0613ZM7.94331 6.64592C7.84884 6.64592 7.75699 6.66661 7.67039 6.70799C6.99072 7.03391 6.39239 7.51761 5.9384 8.10478C5.45817 8.72557 5.14851 9.42396 5.01992 10.1844C4.98843 10.3655 5.04092 10.5492 5.15901 10.6888C5.2771 10.8259 5.4503 10.9061 5.63399 10.9061H5.63662C5.94103 10.9061 6.20082 10.694 6.25068 10.3991C6.44488 9.27653 7.18228 8.30654 8.22148 7.81249C8.4944 7.68316 8.62823 7.37793 8.54426 7.09082C8.49177 6.91493 8.36581 6.77266 8.19786 6.70024C8.11388 6.66402 8.02729 6.64592 7.94331 6.64592Z" fill="black"/>
  <path d="M18.7085 16.4855C18.37 16.1518 17.9265 15.9552 17.4515 15.9242V11.1337C17.4515 9.08767 16.6432 7.16322 15.1763 5.71728C14.3759 4.92836 13.4102 4.32309 12.3552 3.94026V3.22377C12.3552 2.5202 12.0771 1.85802 11.5706 1.3588C11.0641 0.862166 10.3923 0.587982 9.67852 0.587982C8.2037 0.587982 7.00443 1.77008 7.00443 3.22377V3.94026C5.62409 4.44207 4.39333 5.33446 3.49584 6.49328C2.45665 7.83574 1.90819 9.44204 1.90819 11.1337V15.9242C0.887363 15.9888 0.0791016 16.8269 0.0791016 17.8486C0.0791016 18.3634 0.283791 18.8471 0.651183 19.2118C1.0212 19.5765 1.51193 19.7757 2.03415 19.7757H6.2644C6.40349 20.4223 6.72889 21.0147 7.21437 21.4932C7.87305 22.1398 8.74692 22.4968 9.67589 22.4968C10.6049 22.4968 11.4787 22.1398 12.1374 21.4932C12.6229 21.0172 12.9483 20.4223 13.0874 19.7757H17.3176C18.3962 19.7757 19.2753 18.9091 19.2753 17.846C19.2832 17.3339 19.0785 16.8502 18.7085 16.4855ZM8.41364 3.22377C8.41364 2.53572 8.9831 1.97442 9.68114 1.97442C10.0197 1.97442 10.3372 2.10375 10.576 2.33914C10.8148 2.57452 10.946 2.8875 10.946 3.22118V3.57296C10.8122 3.55227 10.6757 3.53416 10.5393 3.51864C10.492 3.51347 10.4422 3.5083 10.3949 3.50312C10.3451 3.49795 10.2926 3.49536 10.2427 3.49019C10.1876 3.48502 10.1325 3.48243 10.0774 3.47984C10.0459 3.47726 10.017 3.47726 9.98555 3.47467C9.96718 3.47467 9.94881 3.47208 9.93044 3.47208C9.89895 3.47208 9.87009 3.4695 9.8386 3.4695C9.82023 3.4695 9.80186 3.4695 9.78349 3.4695C9.74937 3.4695 9.71263 3.4695 9.67852 3.4695C9.6444 3.4695 9.60767 3.4695 9.57355 3.4695C9.55518 3.4695 9.53681 3.4695 9.51844 3.4695C9.48695 3.4695 9.45546 3.47208 9.42659 3.47208C9.41085 3.47208 9.39248 3.47208 9.37411 3.47467C9.34262 3.47467 9.31113 3.47726 9.27964 3.47984C9.18254 3.48502 9.08807 3.49019 8.99097 3.50054C8.98048 3.50054 8.96998 3.50312 8.95686 3.50312C8.91225 3.5083 8.86501 3.51088 8.8204 3.51606C8.75217 3.52382 8.68394 3.53158 8.61571 3.54192C8.59209 3.54451 8.5711 3.5471 8.54748 3.55227C8.50287 3.56003 8.45563 3.5652 8.41102 3.57296L8.41364 3.22377ZM9.68114 21.1104C8.79153 21.1104 8.02788 20.5542 7.73134 19.7782C7.72872 19.7731 7.72872 19.7679 7.72609 19.7653H11.6362C11.6336 19.7705 11.6336 19.7757 11.6309 19.7782C11.3344 20.5542 10.5708 21.1104 9.68114 21.1104ZM17.3255 18.3892H2.03677C1.88982 18.3892 1.75336 18.3323 1.64839 18.2314C1.54604 18.1306 1.48831 17.9935 1.48831 17.8486C1.48831 17.5512 1.73499 17.308 2.03677 17.308H2.6141C3.00249 17.308 3.3174 16.9976 3.3174 16.6148V11.1337C3.3174 8.35824 5.20421 5.88024 7.90454 5.10942C8.47925 4.94647 9.07495 4.86369 9.67852 4.86369C10.2821 4.86369 10.8804 4.94647 11.4525 5.11201H11.4551C12.4786 5.4043 13.418 5.95526 14.1764 6.70021C15.3783 7.88489 16.0396 9.46015 16.0396 11.1363V16.6174C16.0396 17.0002 16.3545 17.3106 16.7429 17.3106H17.3203C17.4672 17.3106 17.6037 17.3675 17.7086 17.4684C17.8136 17.5693 17.8687 17.7064 17.8687 17.8512C17.874 18.1461 17.6273 18.3892 17.3255 18.3892Z" fill="black"/>
  <path d="M9.68077 22.5744C8.7308 22.5744 7.83594 22.2097 7.16151 21.5501C6.6839 21.0819 6.35325 20.4948 6.20367 19.8559H2.0364C1.49318 19.8559 0.98146 19.6464 0.595699 19.2687C0.212562 18.8885 0 18.3867 0 17.8486C0 16.8192 0.797765 15.9552 1.82909 15.8518V11.1337C1.82909 9.42397 2.3828 7.80215 3.43249 6.44675C4.31685 5.30345 5.55549 4.39554 6.92533 3.88856V3.22638C6.92533 1.72872 8.16134 0.513 9.67815 0.513C10.4129 0.513 11.1057 0.794944 11.6253 1.3071C12.1449 1.81925 12.431 2.50212 12.431 3.22638V3.88856C13.4728 4.27397 14.4385 4.887 15.2284 5.66558C16.7111 7.12703 17.5272 9.0696 17.5272 11.1363V15.8569C17.9917 15.9035 18.4273 16.1053 18.7606 16.4338C19.1437 16.814 19.3563 17.3158 19.3563 17.8538C19.3563 18.9609 18.4431 19.861 17.3199 19.861H13.1579C13.0083 20.5025 12.6776 21.0871 12.2 21.5553C11.5256 22.2123 10.6307 22.5744 9.68077 22.5744ZM9.68077 0.663025C8.25057 0.663025 7.08541 1.81149 7.08541 3.22121V3.99203L7.03293 4.01013C5.67358 4.50418 4.44019 5.40175 3.56107 6.53728C2.53238 7.86681 1.98916 9.45501 1.98916 11.1311V15.994L1.91568 15.9992C0.9316 16.0613 0.160078 16.8735 0.160078 17.8461C0.160078 18.3401 0.35427 18.8057 0.711165 19.1549C1.06544 19.5041 1.5378 19.6981 2.03902 19.6981H6.33488L6.348 19.7602C6.48446 20.3965 6.80462 20.9759 7.27698 21.4389C7.91991 22.07 8.77541 22.4192 9.68339 22.4192C10.5914 22.4192 11.4469 22.07 12.0898 21.4389C12.5622 20.9759 12.8823 20.3965 13.0188 19.7602L13.0319 19.6981H17.3278C18.3643 19.6981 19.2067 18.8678 19.2067 17.8461C19.2067 17.352 19.0125 16.8864 18.6556 16.5372C18.3328 16.2191 17.9051 16.0277 17.4485 15.9992L17.375 15.994V11.1311C17.375 9.10581 16.5746 7.20205 15.1208 5.76905C14.3361 4.99564 13.3704 4.38778 12.3286 4.01013L12.2761 3.99203V3.22121C12.2761 2.53834 12.0058 1.89426 11.5151 1.41056C11.0244 0.929449 10.3736 0.663025 9.68077 0.663025ZM9.68077 21.188C8.78591 21.188 7.9724 20.6319 7.65749 19.8067C7.65487 19.8041 7.65487 19.7964 7.65224 19.7912L7.6155 19.6877H11.746L11.7093 19.7912C11.7067 19.7964 11.704 19.8016 11.7014 19.8093C11.3865 20.6319 10.5756 21.188 9.68077 21.188ZM7.84119 19.8404C8.15872 20.5569 8.88301 21.0302 9.67815 21.0302C10.4733 21.0302 11.2002 20.5569 11.5151 19.8404H7.84119ZM17.3251 18.4669H2.0364C1.86845 18.4669 1.711 18.4022 1.5929 18.2858C1.47481 18.1694 1.40921 18.0142 1.40921 17.8486C1.40921 17.5072 1.69 17.2304 2.0364 17.2304H2.61373C2.9575 17.2304 3.23829 16.9537 3.23829 16.6148V11.1337C3.23829 8.32465 5.14873 5.81561 7.88317 5.03444C8.46575 4.8689 9.06932 4.78354 9.68077 4.78354C10.2896 4.78354 10.8905 4.86631 11.4679 5.03186L11.4784 5.03444C12.5149 5.33191 13.4675 5.88803 14.2338 6.64333C15.4514 7.84353 16.1206 9.4369 16.1206 11.1337V16.6148C16.1206 16.9537 16.4014 17.2304 16.7452 17.2304H17.3225C17.4905 17.2304 17.6479 17.2951 17.766 17.4115C17.8841 17.5279 17.9497 17.6831 17.9497 17.8486C17.9523 18.1901 17.6715 18.4669 17.3251 18.4669ZM2.0364 17.3856C1.7766 17.3856 1.56666 17.5926 1.56666 17.8486C1.56666 17.9728 1.61652 18.0892 1.70312 18.1771C1.79235 18.2651 1.91044 18.3117 2.0364 18.3117H17.3251C17.5849 18.3117 17.7949 18.1047 17.7949 17.8486C17.7949 17.7245 17.745 17.6081 17.6584 17.5201C17.5692 17.4322 17.4511 17.3856 17.3251 17.3856H16.7478C16.3174 17.3856 15.9658 17.039 15.9658 16.6148V11.1337C15.9658 9.47829 15.3124 7.92372 14.1236 6.75456C13.3783 6.01995 12.452 5.47676 11.4469 5.18706H11.4442L11.4311 5.18447C10.8643 5.02151 10.2765 4.94132 9.67815 4.94132C9.08245 4.94132 8.49199 5.0241 7.92516 5.18447C5.25632 5.94753 3.39312 8.39449 3.39312 11.1363V16.6174C3.39312 17.0416 3.04148 17.3882 2.6111 17.3882H2.0364V17.3856ZM11.027 3.66611L10.9351 3.65059C10.8013 3.6299 10.6675 3.61179 10.5336 3.59627C10.4864 3.5911 10.4365 3.58593 10.3893 3.58075C10.3394 3.57558 10.2896 3.57299 10.2371 3.56782C10.182 3.56523 10.1295 3.56006 10.0744 3.55747C10.0429 3.55489 10.014 3.55489 9.98255 3.5523L9.92745 3.54971C9.89596 3.54971 9.86709 3.54713 9.8356 3.54713C9.81723 3.54713 9.79886 3.54713 9.78049 3.54713C9.70964 3.54713 9.64141 3.54713 9.57318 3.54713C9.55481 3.54713 9.53644 3.54713 9.52069 3.54713C9.4892 3.54713 9.45771 3.54971 9.42884 3.54971C9.41572 3.54971 9.40523 3.54971 9.39473 3.54971H9.37636C9.34487 3.54971 9.31338 3.5523 9.28189 3.55489C9.19004 3.56006 9.09294 3.56523 8.99585 3.57558L8.96436 3.57817C8.91712 3.58334 8.87251 3.58593 8.8279 3.5911C8.75967 3.59886 8.69144 3.60662 8.62583 3.61697L8.59434 3.62214C8.58122 3.62473 8.5681 3.62473 8.5576 3.62731C8.51299 3.63507 8.46838 3.64025 8.42377 3.64801L8.33192 3.66353V3.22121C8.33192 2.48919 8.93549 1.89426 9.67815 1.89426C10.0377 1.89426 10.3762 2.03136 10.6307 2.28226C10.8853 2.53316 11.0244 2.86684 11.0244 3.22121V3.66611H11.027ZM9.68077 2.05205C9.02471 2.05205 8.49199 2.57714 8.49199 3.2238V3.48505C8.50774 3.48246 8.52349 3.47987 8.53661 3.47729L8.60484 3.46694C8.67307 3.45659 8.74392 3.44883 8.81215 3.44107C8.85939 3.4359 8.904 3.43073 8.95123 3.42814L8.98273 3.42555C9.08245 3.41779 9.18217 3.41003 9.27664 3.40486C9.30813 3.40227 9.33962 3.40227 9.37373 3.39969H9.3921C9.40522 3.39969 9.41572 3.39969 9.42884 3.39969C9.45771 3.39969 9.4892 3.3971 9.52069 3.3971C9.53906 3.3971 9.55743 3.3971 9.5758 3.3971C9.64403 3.3971 9.71488 3.3971 9.78574 3.3971C9.80411 3.3971 9.82248 3.3971 9.84347 3.3971C9.87234 3.3971 9.9012 3.39969 9.93269 3.39969L9.99043 3.40227C10.0219 3.40227 10.0534 3.40486 10.0849 3.40745C10.14 3.41003 10.1951 3.41262 10.2502 3.41779C10.3027 3.42038 10.3526 3.42555 10.4051 3.43073C10.4549 3.4359 10.5022 3.44107 10.552 3.44625C10.657 3.45918 10.7646 3.47211 10.8695 3.48763V3.22638C10.8695 2.9134 10.7462 2.61852 10.5205 2.39866C10.2975 2.17362 9.9983 2.05205 9.68077 2.05205Z" fill="black"/>
</svg>