<svg xmlns="http://www.w3.org/2000/svg" width="21" height="22" fill="none"><path fill="#000" d="m20.751 19.785-3.59-3.54a9.385 9.385 0 0 0 1.56-2.55 9.415 9.415 0 0 0 .713-3.604 9.502 9.502 0 0 0-2.847-6.772 9.66 9.66 0 0 0-3.216-2.104A9.797 9.797 0 0 0 9.715.513a9.82 9.82 0 0 0-3.656.702A9.688 9.688 0 0 0 2.844 3.32 9.402 9.402 0 0 0 .712 6.49 9.414 9.414 0 0 0 0 10.094c0 1.242.24 2.456.712 3.603a9.502 9.502 0 0 0 2.135 3.169 9.661 9.661 0 0 0 3.215 2.103 9.796 9.796 0 0 0 3.656.703c1.26 0 2.492-.235 3.653-.705a9.577 9.577 0 0 0 2.59-1.538l3.59 3.539a.86.86 0 0 0 1.2 0 .828.828 0 0 0 0-1.183zM9.718 18.002a8.03 8.03 0 0 1-5.673-2.317 7.8 7.8 0 0 1-2.351-5.591A7.8 7.8 0 0 1 4.044 4.5a8.062 8.062 0 0 1 5.674-2.313c2.054 0 4.108.772 5.673 2.315a7.835 7.835 0 0 1 0 11.183 8.03 8.03 0 0 1-5.673 2.317z"/></svg>